HIERARCHY
ROOT Hips
{
 OFFSET 0.000000 0.000000 0.000000
 CHANNELS 6 Xposition Yposition Zposition Yrotation Xrotation Zrotation
 JOINT Chest
 {
  OFFSET 0.000000 9.585900 0.002600
  CHANNELS 3 Yrotation Xrotation Zrotation
  JOINT Chest2
  {
   OFFSET 0.000000 9.601200 -0.005300
   CHANNELS 3 Yrotation Xrotation Zrotation
   JOINT Chest3
   {
    OFFSET 0.000000 9.561800 0.000000
    CHANNELS 3 Yrotation Xrotation Zrotation
    JOINT Chest4
    {
     OFFSET 0.000000 9.552100 0.000000
     CHANNELS 3 Yrotation Xrotation Zrotation
     JOINT Neck
     {
      OFFSET 0.000000 14.453000 0.000000
      CHANNELS 3 Yrotation Xrotation Zrotation
      JOINT Head
      {
       OFFSET 0.000000 8.936500 -0.011300
       CHANNELS 3 Yrotation Xrotation Zrotation
       End Site
       {
        OFFSET 0.000000 17.073600 -0.006000
       }
      }
     }
     JOINT RightCollar
     {
      OFFSET -2.921100 9.558500 0.000000
      CHANNELS 3 Yrotation Xrotation Zrotation
      JOINT RightShoulder
      {
       OFFSET -13.519700 0.000000 0.000000
       CHANNELS 3 Yrotation Xrotation Zrotation
       JOINT RightElbow
       {
        OFFSET 0.000000 -29.696600 0.000000
        CHANNELS 3 Yrotation Xrotation Zrotation
        JOINT RightWrist
        {
         OFFSET 0.000000 -24.004700 0.000000
         CHANNELS 3 Yrotation Xrotation Zrotation
         End Site
         {
          OFFSET 0.000000 -17.728500 0.000000
         }
        }
       }
      }
     }
     JOINT LeftCollar
     {
      OFFSET 2.921100 9.558500 0.000000
      CHANNELS 3 Yrotation Xrotation Zrotation
      JOINT LeftShoulder
      {
       OFFSET 13.519700 0.000000 0.000000
       CHANNELS 3 Yrotation Xrotation Zrotation
       JOINT LeftElbow
       {
        OFFSET 0.000000 -29.696600 0.000000
        CHANNELS 3 Yrotation Xrotation Zrotation
        JOINT LeftWrist
        {
         OFFSET 0.000000 -24.004700 0.000000
         CHANNELS 3 Yrotation Xrotation Zrotation
         End Site
         {
          OFFSET 0.000000 -17.728500 0.000000
         }
        }
       }
      }
     }
    }
   }
  }
 }
 JOINT RightHip
 {
  OFFSET -7.771700 -0.012900 -0.001300
  CHANNELS 3 Yrotation Xrotation Zrotation
  JOINT RightKnee
  {
   OFFSET 0.000000 -40.869800 0.001200
   CHANNELS 3 Yrotation Xrotation Zrotation
   JOINT RightAnkle
   {
    OFFSET 0.000000 -39.717900 0.002100
    CHANNELS 3 Yrotation Xrotation Zrotation
    JOINT RightToe
    {
     OFFSET 0.000000 -4.965400 11.033500
     CHANNELS 3 Yrotation Xrotation Zrotation
     End Site
     {
      OFFSET 0.000000 -1.423100 5.872300
     }
    }
   }
  }
 }
 JOINT LeftHip
 {
  OFFSET 7.771700 -0.012900 -0.001300
  CHANNELS 3 Yrotation Xrotation Zrotation
  JOINT LeftKnee
  {
   OFFSET 0.000000 -40.869800 0.001200
   CHANNELS 3 Yrotation Xrotation Zrotation
   JOINT LeftAnkle
   {
    OFFSET 0.000000 -39.717900 0.002100
    CHANNELS 3 Yrotation Xrotation Zrotation
    JOINT LeftToe
    {
     OFFSET 0.000000 -4.965400 11.033500
     CHANNELS 3 Yrotation Xrotation Zrotation
     End Site
     {
      OFFSET 0.000000 -1.423100 5.872300
     }
    }
   }
  }
 }
}
MOTION
Frames: 6
Frame Time: 0.008333
-32.553225 47.937287 29.183251 174.795807 -35.112498 -2.309720 -1.475108 15.811148 1.542139 -0.954217 9.064640 1.263639 -1.168072 11.301718 1.515673 -0.953907 9.050592 1.243793 -0.302543 16.993843 -2.833275 0.410507 -4.200884 -5.136277 10.470272 3.854347 -2.355932 1.789637 -18.038866 -10.230391 38.729090 -67.442464 -26.955591 11.451980 -3.809184 -39.137742 -5.514259 -1.574210 -6.060667 8.014246 -16.795856 -1.088305 -81.154851 -51.351820 57.117085 -8.544532 6.043614 41.009837 23.662903 -47.611578 -22.717286 -107.271181 67.885937 -98.633303 1.297446 -3.776687 4.961117 -0.151887 -0.536727 -0.119684 -10.806792 -49.961198 15.366282 109.738635 76.991278 109.055883 -4.565926 -6.240407 -7.652092 0.423354 0.339805 0.244804
-32.558348 47.933800 29.185771 174.773484 -35.127655 -2.287107 -1.459992 15.801293 1.504388 -0.950054 9.073230 1.271335 -1.162622 11.301808 1.506652 -0.947460 9.033823 1.199658 -0.293662 17.017657 -2.894185 0.446830 -4.154700 -5.251375 10.498450 3.849931 -2.341214 1.789567 -18.055276 -10.251684 38.463879 -67.425241 -26.695145 11.429218 -3.795210 -39.138750 -5.500049 -1.567807 -6.075521 7.991850 -16.791535 -1.012945 -81.051299 -51.510891 57.070174 -8.502326 5.959530 41.009008 23.650017 -47.609649 -22.734148 -107.292069 67.932795 -98.663845 1.297865 -3.765961 4.952870 -0.162642 -0.549277 -0.127200 -10.794922 -49.964873 15.370512 109.811247 77.006754 109.124504 -4.574897 -6.160299 -7.687089 0.431692 0.304301 0.265697
-32.556915 47.930499 29.189921 174.766934 -35.137685 -2.310314 -1.445332 15.800270 1.518763 -0.947705 9.060304 1.244157 -1.154014 11.312957 1.519315 -0.939023 9.018779 1.152008 -0.287247 17.041498 -2.951882 0.477421 -4.108473 -5.359695 10.525368 3.836002 -2.330147 1.784658 -18.058906 -10.264663 38.180184 -67.380415 -26.408125 11.405114 -3.823749 -39.159442 -5.486716 -1.568006 -6.083885 7.968106 -16.784637 -0.940325 -80.942355 -51.670096 57.022036 -8.459739 5.883930 40.995367 23.612584 -47.616512 -22.696115 -107.299296 67.958690 -98.665048 1.279988 -3.763336 4.944541 -0.160299 -0.549173 -0.123671 -10.867973 -49.973376 15.455972 109.966222 77.018401 109.261842 -4.572090 -6.082887 -7.709987 0.427570 0.279670 0.268256
-32.558214 47.928084 29.193195 174.759995 -35.153567 -2.313031 -1.432581 15.803957 1.513037 -0.928064 9.023501 1.170636 -1.139456 11.316444 1.500741 -0.928623 9.039343 1.185612 -0.285308 17.063861 -3.005871 0.498444 -4.065109 -5.459648 10.547276 3.817998 -2.322618 1.769447 -18.060072 -10.271177 37.893128 -67.330147 -26.106940 11.388917 -3.879568 -39.198541 -5.478640 -1.572534 -6.084720 7.982120 -16.841137 -0.938838 -80.790834 -51.767653 56.876576 -8.415381 5.815451 40.966163 23.548812 -47.625872 -22.667852 -107.298648 67.998305 -98.690956 1.285663 -3.746015 4.943492 -0.163998 -0.567566 -0.131387 -10.894546 -49.964023 15.487404 110.015197 77.035686 109.304953 -4.573590 -6.040252 -7.730344 0.435960 0.301938 0.260194
-32.556853 47.925826 29.197348 174.758397 -35.166620 -2.331619 -1.420269 15.796033 1.501682 -0.913711 9.020250 1.157987 -1.122951 11.308968 1.467653 -0.919316 9.044968 1.188796 -0.288144 17.082929 -3.056242 0.509509 -4.028138 -5.551273 10.563478 3.800288 -2.317058 1.748707 -18.061674 -10.277247 37.551823 -67.223400 -25.723430 11.350767 -3.961872 -39.255269 -5.488018 -1.556921 -6.041607 7.998842 -16.897255 -0.972606 -80.622442 -51.882975 56.740112 -8.365930 5.746963 40.921624 23.512387 -47.625994 -22.632460 -107.301056 68.013184 -98.688528 1.266115 -3.749210 4.940497 -0.142941 -0.562843 -0.130036 -10.945718 -49.952525 15.544044 110.083470 77.050191 109.357396 -4.563563 -6.015902 -7.738396 0.433918 0.303952 0.257686
-32.557421 47.925692 29.198556 174.748270 -35.200785 -2.329041 -1.399514 15.806344 1.477258 -0.902507 9.016387 1.141838 -1.109884 11.307136 1.451423 -0.919818 9.060661 1.216795 -0.297070 17.081751 -3.148731 0.511844 -3.997372 -5.636638 10.580338 3.774622 -2.358093 1.734232 -18.060664 -10.287433 37.232831 -67.146859 -25.373018 11.306182 -4.008281 -39.296208 -5.488639 -1.560303 -6.039561 8.009834 -16.946187 -1.000132 -80.422149 -52.020436 56.584081 -8.312049 5.674682 40.868993 23.492674 -47.599790 -22.605789 -107.299295 68.021597 -98.689463 1.257209 -3.750376 4.941292 -0.131902 -0.560294 -0.122838 -10.944821 -49.920061 15.550654 110.105962 77.055962 109.374025 -4.554823 -5.989738 -7.748944 0.427439 0.301872 0.258382
